<svg width="1920" height="1080" viewBox="0 0 1920 1080" fill="none" xmlns="http://www.w3.org/2000/svg">
<g clip-path="url(#clip0_233_5)">
<rect width="1920" height="1080" fill="black"/>
<rect width="1920" height="1080" fill="black"/>
<path d="M-1368.38 1049.18C-1357.32 1055.43 -1346.12 1061.09 -1334.79 1066.17C-1323.33 1071.12 -1311.48 1075.35 -1299.24 1078.87C-1287 1082.25 -1274.18 1084.86 -1260.77 1086.68C-1247.22 1088.5 -1232.84 1089.41 -1217.6 1089.41C-1199.24 1089.41 -1183.62 1088.24 -1170.73 1085.9C-1157.84 1083.42 -1147.35 1080.1 -1139.28 1075.94C-1131.08 1071.64 -1125.15 1066.56 -1121.51 1060.7C-1117.73 1054.84 -1115.84 1048.46 -1115.84 1041.56C-1115.84 1030.49 -1120.47 1021.77 -1129.71 1015.39C-1138.96 1008.88 -1153.21 1005.62 -1172.48 1005.62C-1180.95 1005.62 -1189.87 1006.21 -1199.24 1007.38C-1208.62 1008.42 -1218.12 1009.6 -1227.76 1010.9C-1237.26 1012.2 -1246.7 1013.44 -1256.08 1014.61C-1265.32 1015.65 -1274.05 1016.17 -1282.25 1016.17C-1295.92 1016.17 -1309.07 1014.41 -1321.7 1010.9C-1334.2 1007.38 -1345.34 1002.11 -1355.1 995.078C-1364.74 988.047 -1372.42 979.258 -1378.15 968.711C-1383.88 958.164 -1386.74 945.859 -1386.74 931.797C-1386.74 923.464 -1385.64 915.195 -1383.42 906.992C-1381.08 898.789 -1377.43 890.977 -1372.48 883.555C-1367.41 876.003 -1360.9 869.036 -1352.95 862.656C-1345.01 856.146 -1335.44 850.547 -1324.24 845.859C-1312.91 841.172 -1299.89 837.526 -1285.18 834.922C-1270.34 832.188 -1253.47 830.82 -1234.59 830.82C-1220.92 830.82 -1207.18 831.602 -1193.38 833.164C-1179.58 834.596 -1166.17 836.68 -1153.15 839.414C-1140 842.148 -1127.37 845.469 -1115.26 849.375C-1103.15 853.151 -1091.89 857.383 -1081.47 862.07L-1108.62 912.07C-1117.21 908.294 -1126.46 904.844 -1136.35 901.719C-1146.25 898.464 -1156.6 895.664 -1167.41 893.32C-1178.21 890.977 -1189.41 889.154 -1201 887.852C-1212.46 886.419 -1224.18 885.703 -1236.16 885.703C-1253.21 885.703 -1267.28 886.94 -1278.34 889.414C-1289.28 891.888 -1298.01 895.078 -1304.52 898.984C-1311.03 902.76 -1315.58 907.057 -1318.19 911.875C-1320.66 916.562 -1321.9 921.25 -1321.9 925.938C-1321.9 935.052 -1317.8 942.539 -1309.59 948.398C-1301.39 954.128 -1288.89 956.992 -1272.09 956.992C-1265.32 956.992 -1257.58 956.536 -1248.85 955.625C-1240 954.583 -1230.75 953.477 -1221.12 952.305C-1211.35 951.133 -1201.46 950.091 -1191.43 949.18C-1181.27 948.138 -1171.44 947.617 -1161.94 947.617C-1143.97 947.617 -1128.08 949.635 -1114.28 953.672C-1100.35 957.708 -1088.7 963.503 -1079.32 971.055C-1069.95 978.477 -1062.85 987.526 -1058.03 998.203C-1053.21 1008.75 -1050.8 1020.6 -1050.8 1033.75C-1050.8 1051.33 -1054.91 1067.02 -1063.11 1080.82C-1071.18 1094.49 -1082.77 1106.08 -1097.88 1115.59C-1112.85 1124.96 -1130.95 1132.12 -1152.17 1137.07C-1173.4 1141.89 -1197.03 1144.3 -1223.07 1144.3C-1240.26 1144.3 -1257.05 1143.19 -1273.46 1140.98C-1289.87 1138.89 -1305.62 1135.9 -1320.73 1131.99C-1335.7 1127.96 -1350.02 1123.2 -1363.7 1117.73C-1377.24 1112.14 -1389.8 1106.02 -1401.39 1099.38L-1368.38 1049.18ZM-1054.61 986.484C-1054.61 963.438 -1050.38 942.344 -1041.91 923.203C-1033.45 904.062 -1021.6 887.656 -1006.37 873.984C-991.003 860.182 -972.643 849.505 -951.289 841.953C-929.805 834.401 -906.042 830.625 -880 830.625C-854.089 830.625 -830.391 834.401 -808.906 841.953C-787.422 849.505 -769.062 860.182 -753.828 873.984C-738.464 887.656 -726.549 904.062 -718.086 923.203C-709.622 942.344 -705.391 963.438 -705.391 986.484C-705.391 1009.66 -709.622 1030.95 -718.086 1050.35C-726.549 1069.62 -738.464 1086.22 -753.828 1100.16C-769.062 1114.09 -787.422 1124.96 -808.906 1132.77C-830.391 1140.46 -854.089 1144.3 -880 1144.3C-906.042 1144.3 -929.805 1140.46 -951.289 1132.77C-972.643 1124.96 -991.003 1114.09 -1006.37 1100.16C-1021.6 1086.22 -1033.45 1069.62 -1041.91 1050.35C-1050.38 1030.95 -1054.61 1009.66 -1054.61 986.484ZM-992.695 986.484C-992.695 1002.24 -989.896 1016.43 -984.297 1029.06C-978.568 1041.69 -970.69 1052.5 -960.664 1061.48C-950.508 1070.34 -938.594 1077.17 -924.922 1081.99C-911.12 1086.81 -896.146 1089.22 -880 1089.22C-863.854 1089.22 -848.945 1086.81 -835.273 1081.99C-821.471 1077.17 -809.557 1070.34 -799.531 1061.48C-789.505 1052.5 -781.628 1041.69 -775.898 1029.06C-770.169 1016.43 -767.305 1002.24 -767.305 986.484C-767.305 970.729 -770.169 956.602 -775.898 944.102C-781.628 931.602 -789.505 921.055 -799.531 912.461C-809.557 903.737 -821.471 897.096 -835.273 892.539C-848.945 887.982 -863.854 885.703 -880 885.703C-896.146 885.703 -911.12 887.982 -924.922 892.539C-938.594 897.096 -950.508 903.737 -960.664 912.461C-970.69 921.055 -978.568 931.602 -984.297 944.102C-989.896 956.602 -992.695 970.729 -992.695 986.484ZM-690.641 834.727H-417.594V889.023H-628.727V968.906H-449.43V1019.88H-628.727V1140H-690.641V834.727ZM-319.836 889.023H-432.531V834.727H-145.227V889.023H-257.922V1140H-319.836V889.023ZM-172.469 834.727H-104.891L-22.0781 1031.8L-2.9375 1079.45L12.1016 1031.8L42.5703 959.922L-12.3125 834.727H51.3594L73.8203 894.297L94.7188 834.727H158.391L103.508 959.922L134.562 1033.36L153.312 1079.45L167.766 1032.58L250.969 834.727H318.547L183.781 1140H122.453L95.3047 1079.45L73.2344 1020.66L51.1641 1079.45L23.625 1140H-37.7031L-172.469 834.727ZM415.914 834.727H481.539L629.195 1140H564.156L539.742 1088.63H361.422L337.789 1140H272.555L415.914 834.727ZM515.328 1037.66L449.312 898.984L385.055 1037.66H515.328ZM622.656 834.727H777.93C801.367 834.727 821.68 837.201 838.867 842.148C856.055 846.966 870.312 853.997 881.641 863.242C892.969 872.487 901.367 883.75 906.836 897.031C912.435 910.312 915.234 925.352 915.234 942.148C915.234 953.477 913.867 964.284 911.133 974.57C908.398 984.727 904.167 994.102 898.438 1002.7C892.839 1011.29 885.742 1018.97 877.148 1025.74C868.555 1032.38 858.464 1037.92 846.875 1042.34L913.281 1140H837.5L780.078 1053.28H778.32L684.57 1053.09V1140H622.656V834.727ZM779.492 999.57C791.211 999.57 801.432 998.203 810.156 995.469C819.01 992.734 826.367 988.893 832.227 983.945C838.216 978.997 842.643 973.008 845.508 965.977C848.503 958.815 850 950.872 850 942.148C850 925.091 844.141 911.94 832.422 902.695C820.703 893.32 803.06 888.633 779.492 888.633H684.57V999.57H779.492ZM934.672 834.727H1194.63V889.023H996.586V949.961H1171.98V1000.94H996.586V1085.9H1198.73V1140H934.672V834.727Z" fill="url(#paint0_linear_233_5)" fill-opacity="0.17"/>
<path d="M1044.36 -1.27344H1156.27C1188.96 -1.27344 1217.34 2.24219 1241.43 9.27344C1265.52 16.3047 1285.44 26.3958 1301.2 39.5469C1317.08 52.5677 1328.86 68.4531 1336.55 87.2031C1344.36 105.823 1348.27 126.786 1348.27 150.094C1348.27 172.229 1344.42 192.737 1336.74 211.617C1329.06 230.367 1317.34 246.643 1301.59 260.445C1285.83 274.117 1265.91 284.859 1241.82 292.672C1217.73 300.354 1189.35 304.195 1156.66 304.195L1044.36 304V-1.27344ZM1171.51 250.484C1190 250.484 1206.21 248.141 1220.14 243.453C1234.07 238.635 1245.66 231.865 1254.91 223.141C1264.28 214.417 1271.31 203.87 1276 191.5C1280.69 179.13 1283.03 165.328 1283.03 150.094C1283.03 135.12 1280.69 121.643 1276 109.664C1271.31 97.5547 1264.28 87.3333 1254.91 79C1245.66 70.5365 1234.07 64.026 1220.14 59.4688C1206.21 54.9115 1190 52.6328 1171.51 52.6328H1106.27V250.484H1171.51ZM1356.38 -1.27344H1616.34V53.0234H1418.29V113.961H1593.68V164.938H1418.29V249.898H1620.44V304H1356.38V-1.27344ZM1594.37 -1.27344H1662.92L1758.82 231.539L1854.72 -1.27344H1923.27L1789.48 304H1728.16L1594.37 -1.27344ZM1915.17 -1.27344H2175.13V53.0234H1977.09V113.961H2152.48V164.938H1977.09V249.898H2179.23V304H1915.17V-1.27344ZM2193.98 -1.27344H2255.9V249.703H2433.44V304H2193.98V-1.27344ZM2421.62 150.484C2421.62 127.438 2425.86 106.344 2434.32 87.2031C2442.78 68.0625 2454.63 51.6562 2469.87 37.9844C2485.23 24.1823 2503.59 13.5052 2524.95 5.95312C2546.43 -1.59896 2570.19 -5.375 2596.23 -5.375C2622.15 -5.375 2645.84 -1.59896 2667.33 5.95312C2688.81 13.5052 2707.17 24.1823 2722.41 37.9844C2737.77 51.6562 2749.68 68.0625 2758.15 87.2031C2766.61 106.344 2770.84 127.438 2770.84 150.484C2770.84 173.661 2766.61 194.951 2758.15 214.352C2749.68 233.622 2737.77 250.224 2722.41 264.156C2707.17 278.089 2688.81 288.961 2667.33 296.773C2645.84 304.456 2622.15 308.297 2596.23 308.297C2570.19 308.297 2546.43 304.456 2524.95 296.773C2503.59 288.961 2485.23 278.089 2469.87 264.156C2454.63 250.224 2442.78 233.622 2434.32 214.352C2425.86 194.951 2421.62 173.661 2421.62 150.484ZM2483.54 150.484C2483.54 166.24 2486.34 180.432 2491.94 193.062C2497.67 205.693 2505.54 216.5 2515.57 225.484C2525.73 234.339 2537.64 241.174 2551.31 245.992C2565.11 250.81 2580.09 253.219 2596.23 253.219C2612.38 253.219 2627.29 250.81 2640.96 245.992C2654.76 241.174 2666.68 234.339 2676.7 225.484C2686.73 216.5 2694.61 205.693 2700.34 193.062C2706.07 180.432 2708.93 166.24 2708.93 150.484C2708.93 134.729 2706.07 120.602 2700.34 108.102C2694.61 95.6016 2686.73 85.0547 2676.7 76.4609C2666.68 67.737 2654.76 61.0964 2640.96 56.5391C2627.29 51.9818 2612.38 49.7031 2596.23 49.7031C2580.09 49.7031 2565.11 51.9818 2551.31 56.5391C2537.64 61.0964 2525.73 67.737 2515.57 76.4609C2505.54 85.0547 2497.67 95.6016 2491.94 108.102C2486.34 120.602 2483.54 134.729 2483.54 150.484ZM2785.59 -1.27344H2946.53C2969.97 -1.27344 2990.28 1.26562 3007.47 6.34375C3024.66 11.4219 3038.91 18.7786 3050.24 28.4141C3061.57 37.9193 3069.97 49.5729 3075.44 63.375C3081.04 77.1771 3083.84 92.737 3083.84 110.055C3083.84 126.331 3081.1 141.37 3075.63 155.172C3070.16 168.974 3061.77 180.953 3050.44 191.109C3039.24 201.135 3025.05 209.013 3007.86 214.742C2990.67 220.341 2970.36 223.141 2946.92 223.141L2847.51 222.945V304H2785.59V-1.27344ZM2948.09 169.43C2959.81 169.43 2970.03 168.062 2978.76 165.328C2987.61 162.464 2994.97 158.492 3000.83 153.414C3006.82 148.206 3011.24 141.956 3014.11 134.664C3017.1 127.242 3018.6 119.039 3018.6 110.055C3018.6 91.9557 3012.68 77.8932 3000.83 67.8672C2989.11 57.7109 2971.53 52.6328 2948.09 52.6328H2847.51V169.43H2948.09ZM3097.61 -1.27344H3357.57V53.0234H3159.52V113.961H3334.91V164.938H3159.52V249.898H3361.67V304H3097.61V-1.27344ZM3376.42 -1.27344H3531.7C3555.13 -1.27344 3575.45 1.20052 3592.63 6.14844C3609.82 10.9661 3624.08 17.9974 3635.41 27.2422C3646.73 36.487 3655.13 47.75 3660.6 61.0312C3666.2 74.3125 3669 89.3516 3669 106.148C3669 117.477 3667.63 128.284 3664.9 138.57C3662.16 148.727 3657.93 158.102 3652.2 166.695C3646.6 175.289 3639.51 182.971 3630.91 189.742C3622.32 196.383 3612.23 201.917 3600.64 206.344L3667.05 304H3591.27L3533.84 217.281H3532.09L3438.34 217.086V304H3376.42V-1.27344ZM3533.26 163.57C3544.98 163.57 3555.2 162.203 3563.92 159.469C3572.78 156.734 3580.13 152.893 3585.99 147.945C3591.98 142.997 3596.41 137.008 3599.27 129.977C3602.27 122.815 3603.77 114.872 3603.77 106.148C3603.77 89.0911 3597.91 75.9401 3586.19 66.6953C3574.47 57.3203 3556.83 52.6328 3533.26 52.6328H3438.34V163.57H3533.26Z" fill="url(#paint1_linear_233_5)" fill-opacity="0.17"/>
</g>
<defs>
<linearGradient id="paint0_linear_233_5" x1="216.667" y1="815" x2="-42.5164" y2="1487.71" gradientUnits="userSpaceOnUse">
<stop stop-color="#6E80FF"/>
<stop offset="0.46875" stop-color="#6E80FF" stop-opacity="0"/>
<stop offset="1" stop-color="#6E80FF"/>
</linearGradient>
<linearGradient id="paint1_linear_233_5" x1="2407.67" y1="-21" x2="2118.59" y2="621.505" gradientUnits="userSpaceOnUse">
<stop stop-color="#6E80FF"/>
<stop offset="0.46875" stop-color="#6E80FF" stop-opacity="0"/>
<stop offset="1" stop-color="#6E80FF"/>
</linearGradient>
<clipPath id="clip0_233_5">
<rect width="1920" height="1080" fill="white"/>
</clipPath>
</defs>
</svg>
